<?xml version="1.0" encoding="utf-8"?>
<!-- Generator: Adobe Illustrator 22.1.0, SVG Export Plug-In . SVG Version: 6.00 Build 0)  -->
<svg version="1.1" id="Layer_1" xmlns="http://www.w3.org/2000/svg" xmlns:xlink="http://www.w3.org/1999/xlink" x="0px" y="0px"
	 viewBox="0 0 841.9 595.3" style="enable-background:new 0 0 841.9 595.3;" xml:space="preserve">
<style type="text/css">
	.st0{fill:url(#SVGID_1_);}
	.st1{fill:#FFFFFF;}
	.st2{fill:url(#SVGID_2_);}
</style>
<radialGradient id="SVGID_1_" cx="392.1295" cy="282.453" r="193.0045" gradientUnits="userSpaceOnUse">
	<stop  offset="0" style="stop-color:#000000;stop-opacity:0.8"/>
	<stop  offset="4.959488e-02" style="stop-color:#00111B;stop-opacity:0.8121"/>
	<stop  offset="0.1421" style="stop-color:#002D48;stop-opacity:0.8347"/>
	<stop  offset="0.231" style="stop-color:#00436C;stop-opacity:0.8565"/>
	<stop  offset="0.3142" style="stop-color:#005385;stop-opacity:0.8768"/>
	<stop  offset="0.3895" style="stop-color:#005D95;stop-opacity:0.8952"/>
	<stop  offset="0.4498" style="stop-color:#00609A;stop-opacity:0.91"/>
	<stop  offset="1" style="stop-color:#FFFFFF"/>
</radialGradient>
<path class="st0" d="M553,374H231.2c-18.9,0-34.2-15.3-34.2-34.2V225.1c0-18.9,15.3-34.2,34.2-34.2H553c18.9,0,34.2,15.3,34.2,34.2
	v114.6C587.2,358.7,571.9,374,553,374z"/>
<path class="st1" d="M276,341.8v-54.4c0-2.8,1-4.9,3-6.4c2-1.4,4.6-2.1,7.8-2.1c3.3,0,6,0.7,8,2.1c2,1.4,3.1,3.5,3.1,6.4v54.4
	c0,2.9-1,5-3.1,6.4c-2,1.4-4.7,2.1-8,2.1c-3.1,0-5.7-0.7-7.8-2.1C277,346.8,276,344.6,276,341.8z"/>
<path class="st1" d="M292,262.7h-15.7v-23.2H253v-15.9h23.3v-23.3H292v23.3h23.4v15.9H292V262.7z"/>
<path class="st1" d="M332.3,277.7v2.5c3.6-4.8,7.6-8.4,12-10.6c4.3-2.3,9.3-3.4,14.9-3.4c5.5,0,10.4,1.2,14.7,3.6
	c4.3,2.4,7.5,5.8,9.7,10.1c1.4,2.5,2.3,5.3,2.7,8.2c0.4,2.9,0.6,6.7,0.6,11.3V338c0,4.2-1,7.3-2.9,9.4c-1.9,2.1-4.4,3.2-7.4,3.2
	c-3.1,0-5.6-1.1-7.5-3.3c-1.9-2.2-2.9-5.3-2.9-9.4v-34.6c0-6.8-1-12.1-2.9-15.7c-1.9-3.6-5.7-5.4-11.4-5.4c-3.7,0-7.1,1.1-10.1,3.3
	c-3,2.2-5.3,5.2-6.7,9.1c-1,3.1-1.5,8.9-1.5,17.3v26c0,4.2-1,7.4-2.9,9.5s-4.5,3.2-7.6,3.2c-3,0-5.4-1.1-7.4-3.3
	c-1.9-2.2-2.9-5.3-2.9-9.4v-60c0-4,0.9-6.9,2.6-8.9c1.7-2,4.1-2.9,7.1-2.9c1.8,0,3.5,0.4,4.9,1.3c1.5,0.9,2.6,2.2,3.5,3.9
	C331.8,273.1,332.3,275.2,332.3,277.7z"/>
<path class="st1" d="M405.8,277.3h4.9v-5.5c0-5.8,0.8-10.3,2.5-13.7c1.6-3.4,4.4-5.9,8.4-7.4c3.9-1.6,9.3-2.3,16.2-2.3
	c12.1,0,18.2,2.6,18.2,7.9c0,1.7-0.6,3.2-1.9,4.4c-1.3,1.2-2.8,1.8-4.5,1.8c-0.8,0-2.2-0.1-4.2-0.4c-2-0.3-3.7-0.4-5-0.4
	c-3.8,0-6.2,1-7.2,2.9c-1.1,2-1.6,4.8-1.6,8.4v4.4h5.1c7.9,0,11.9,2.1,11.9,6.3c0,3-1.1,4.9-3.2,5.7c-2.1,0.8-5,1.2-8.7,1.2h-5.1
	v48.8c0,3.6-1,6.4-2.9,8.3c-2,1.9-4.5,2.9-7.6,2.9c-2.9,0-5.4-1-7.3-2.9c-2-1.9-2.9-4.7-2.9-8.3v-48.8H405c-3.1,0-5.5-0.6-7.1-1.9
	c-1.7-1.2-2.5-2.8-2.5-4.8C395.4,279.5,398.8,277.3,405.8,277.3z"/>
<path class="st1" d="M535,308.4c0,6.2-1,11.9-2.9,17.1c-1.9,5.2-4.7,9.7-8.4,13.5c-3.6,3.8-8,6.6-13.1,8.6c-5.1,2-10.8,3-17.1,3
	c-6.3,0-11.9-1-17-3c-5-2-9.4-4.9-13-8.7c-3.7-3.8-6.5-8.2-8.4-13.4c-1.9-5.1-2.9-10.8-2.9-17.1c0-6.3,1-12,2.9-17.3
	c1.9-5.2,4.7-9.7,8.3-13.4c3.6-3.7,8-6.6,13.1-8.6c5.1-2,10.8-3,17-3c6.3,0,12,1,17.1,3s9.5,4.9,13.2,8.7c3.6,3.8,6.4,8.2,8.3,13.4
	C534.1,296.5,535,302.2,535,308.4z M514.2,308.4c0-8.5-1.9-15.1-5.6-19.8c-3.7-4.7-8.7-7.1-15-7.1c-4.1,0-7.6,1.1-10.7,3.2
	c-3.1,2.1-5.5,5.2-7.1,9.3c-1.7,4.1-2.5,8.9-2.5,14.4c0,5.4,0.8,10.2,2.5,14.2c1.6,4.1,4,7.2,7.1,9.3c3.1,2.2,6.7,3.2,10.8,3.2
	c6.3,0,11.3-2.4,15-7.1C512.3,323.4,514.2,316.8,514.2,308.4z"/>
</svg>
